# xmcd
#
# Track frame offsets:
#	150
#	20894
#	39019
#	53586
#	76806
#	89817
#	113897
#	127793
#	140273
#	159232
#	178009
#	194407
#	213535
#	232082
#	253047
#
# Disc length: 3679 seconds
# Revision: 2
# Processed by: cddbd v1.5.2PL0 Copyright (c) Steve Scherf et al.
# Submitted via: dBpowerAMP V12.0
#
DISCID=c70e5d0f
DTITLE=Reuben Kigame - Another Country
DYEAR=2002
DGENRE=Country
TTITLE0=Another Country
TTITLE1=Why Kill Tonight
TTITLE2=Gospel Country
TTITLE3=I Feel Love Flowing
TTITLE4=Land Far Away
TTITLE5=Death Where Is Your Sting
TTITLE6=Lord I'm in Love
TTITLE7=Follow the Star
TTITLE8=A Christmas Man
TTITLE9=When I Was a Boy
TTITLE10=The Way It Ought to Be
TTITLE11=I Have a Dream
TTITLE12=When I Wake Up
TTITLE13=Who Will Help the Refugees
TTITLE14=This Connot Be
EXTD=
EXTT0=
EXTT1=
EXTT2=
EXTT3=
EXTT4=
EXTT5=
EXTT6=
EXTT7=
EXTT8=
EXTT9=
EXTT10=
EXTT11=
EXTT12=
EXTT13=
EXTT14=
PLAYORDER=
